<svg 
id="Ebene_1"
data-name="Ebene 1"
xmlns="http://www.w3.org/2000/svg" 
viewBox="0 0 96.47 96.39">
<defs>
    <style>.cls-1{fill:#f7b210;}.cls-2{fill:#b42565;}.cls-3{fill:#363636;}</style>
</defs>
<path class="cls-1" d="M117.22,91.73h0Z" transform="translate(-90.29 -35.52)"/>
<rect class="cls-1" x="27.11" y="56.37" width="0.01" height="0.01"/>
<path
    class="cls-2" 
     d="M171,36.09a1.9,1.9,0,0,0-.1.91q0,10.5-.05,21a20.08,20.08,0,0,0-.08,3c-.35.13-.5-.11-.71-.22q-2.44-1.41-4.88-2.83c-.49-.35-1-.71-1.49-1-.37-.2-.53-.15-.73.17-1,1.67-2.12,3.31-3.05,5-.15.2-.31.39-.45.59-3.32,5.38-6.66,10.74-10,16.11-.34.55-.57.71-1.19.32-4.08-2.58-8.21-5.08-12.29-7.65-.58-.36-.75-.19-1.07.31-2.3,3.76-4.64,7.5-7,11.25-1.32,2.12-2.6,4.25-3.92,6.38-.72.88-1.19,1.92-1.83,2.85-.37.56-.71,1.56-1.13,1.59-.59,0-1.19-.68-1.83-1s-1.14-1-1.92-1c0-.14,0-.18-.17-.16,0-.25-.2-.18-.36-.17a55.62,55.62,0,0,0-4.85-3.2c-.38-.25-.63-.09-.89.13l-9.52,7.69c-3.44,2.79-6.91,5.58-10.36,8.34-.27.22-.42.62-.85.61-.08-.17,0-.31.11-.45l17.54-26.56a10.67,10.67,0,0,0,.59-1.11,3.76,3.76,0,0,0,.35-.34c.8-1.14.78-1.12,1.89-.32,1.86,1.31,3.62,2.76,5.54,4,1,1,1,1,1.79-.23q6.77-10.9,13.53-21.83c.4-.65.67-.7,1.34-.28,4.11,2.57,8.27,5.07,12.38,7.63.53.33.74.21,1-.28.82-1.42,1.7-2.82,2.56-4.23L153.88,53c1.11-1.42,1.11-1.42-.4-2.33l-.15-.08-6.24-3.93c1.8-.93,3.61-1.59,5.26-2.56a24.45,24.45,0,0,0,3.06-1.34c4.29-2,8.57-4,12.87-6l2.16-1c.18-.08.35-.23.54-.11A.4.4,0,0,1,171,36.09Z"
    transform="translate(-90.29 -35.52)"
/>
<path 
    class="cls-3" 
    d="M186.09,125.7c-2.54,1.92-5.07,3.86-7.61,5.79a1.77,1.77,0,0,1-2.6-.35l-17.12-22.46a3.1,3.1,0,0,1,.17-4.39c.26-.28.21-.42,0-.68-1.87-2.43-3.75-4.87-5.6-7.33-.35-.48-.59-.19-.89,0a29.89,29.89,0,0,1-34.63-3.76c-.18-.15-.52-.22-.44-.59h0c.78.07,1.26.7,1.92,1s1.24,1,1.83,1c.42,0,.76-1,1.13-1.59.64-.93,1.11-2,1.83-2.85l.5.31a23.35,23.35,0,0,0,30.18-3.35c6.53-7,8.09-15.19,5.15-24.27.93-1.74,2-3.38,3.05-5,.2-.32.36-.37.73-.17.52.31,1,.67,1.49,1-.14.07-.11.12-.06.26a29.78,29.78,0,0,1-6.44,33.3c-.48.48-.52.73-.08,1.28,1.77,2.24,3.5,4.55,5.22,6.86.29.38.46.45.92.2a3.12,3.12,0,0,1,4.09,1q4,5.22,8,10.47l9.49,12.47C187,124.64,186.89,125.08,186.09,125.7Z" 
    transform="translate(-90.29 -35.52)"
/>
<path 
    class="cls-3"
    d="M153.88,53a23.15,23.15,0,0,0-21-5.85A23.55,23.55,0,0,0,114.2,69.35a24.73,24.73,0,0,0,2.23,11c-1.92-1.22-3.68-2.67-5.54-4-1.11-.8-1.09-.82-1.89.32a3.76,3.76,0,0,1-.35.34,28.19,28.19,0,0,1-.59-10.47,29.9,29.9,0,0,1,44.29-22.45c-1.65,1-3.46,1.63-5.26,2.56l6.24,3.93.15.08C155,51.57,155,51.57,153.88,53Z" 
    transform="translate(-90.29 -35.52)"
/>
<path 
    class="cls-3" 
    d="M117.24,91.73h0c-.19.11-.25-.08-.34-.19C117,91.55,117.2,91.48,117.24,91.73Z" 
    transform="translate(-90.29 -35.52)"
/>
<path 
class="cls-3"
 d="M117.41,91.89h0c-.17.07-.23,0-.17-.15v0h0C117.37,91.71,117.43,91.75,117.41,91.89Z" 
 transform="translate(-90.29 -35.52)"/>
 <path class="cls-1" 
 d="M90.39,105.14a.44.44,0,0,1-.06.1.42.42,0,0,1,0-.1Z" transform="translate(-90.29 -35.52)"/><path class="cls-3" d="M143.56,51.06a1.91,1.91,0,0,1-2.14,1.45l-2.16-.11A20.13,20.13,0,0,0,129,54.67c-4.73,2.68-7.16,6.94-8.23,12.13a11.76,11.76,0,0,0-.29,2.65,1.61,1.61,0,0,1-1.62,1.67,1.64,1.64,0,0,1-1.64-1.67,21.24,21.24,0,0,1,1.44-7c3-8,8.77-12.48,17.33-13.29a27.72,27.72,0,0,1,5.76,0A2,2,0,0,1,143.56,51.06Z" transform="translate(-90.29 -35.52)"/></svg>